<svg width="96" height="96" viewBox="0 0 96 96" fill="none" xmlns="http://www.w3.org/2000/svg">
  <rect width="96" height="96" rx="28" fill="#FFFBEB" />
  <circle cx="48" cy="48" r="36" fill="url(#bg)" />
  <g clip-path="url(#markClip)">
    <path
      d="M30.2 18.8A33.2 33.2 0 0 1 65.8 18.8"
      stroke="white"
      stroke-width="8.6"
      stroke-linecap="round"
    />
    <path
      d="M77.2 30.2A33.2 33.2 0 0 1 77.2 65.8"
      stroke="white"
      stroke-width="8.6"
      stroke-linecap="round"
    />
    <path
      d="M65.8 77.2A33.2 33.2 0 0 1 30.2 77.2"
      stroke="white"
      stroke-width="8.6"
      stroke-linecap="round"
    />
    <path
      d="M18.8 65.8A33.2 33.2 0 0 1 18.8 30.2"
      stroke="white"
      stroke-width="8.6"
      stroke-linecap="round"
    />
    <path
      d="M48 20.4 57.42 38.58 75.6 48 57.42 57.42 48 75.6 38.58 57.42 20.4 48 38.58 38.58 48 20.4Z"
      fill="white"
    />
    <path d="M48 37.8 58.2 48 48 58.2 37.8 48 48 37.8Z" fill="#FDBA74" fill-opacity=".92" />
  </g>
  <defs>
    <clipPath id="markClip">
      <circle cx="48" cy="48" r="36" />
    </clipPath>
    <linearGradient id="bg" x1="22" y1="16" x2="75" y2="82" gradientUnits="userSpaceOnUse">
      <stop stop-color="#F59E0B" />
      <stop offset=".48" stop-color="#F97316" />
      <stop offset="1" stop-color="#B45309" />
    </linearGradient>
  </defs>
</svg>
